<?xml version="1.0" standalone="no"?>
<!DOCTYPE svg PUBLIC "-//W3C//DTD SVG 20010904//EN"
 "http://www.w3.org/TR/2001/REC-SVG-20010904/DTD/svg10.dtd">
<svg version="1.0" xmlns="http://www.w3.org/2000/svg"
 width="300.000000pt" height="300.000000pt" viewBox="0 0 300.000000 300.000000"
 preserveAspectRatio="xMidYMid meet">
<metadata>
Created by potrace 1.14, written by Peter Selinger 2001-2017
</metadata>
<g transform="translate(0.000000,300.000000) scale(0.100000,-0.100000)"
fill="#000000" stroke="none">
<path d="M1529 2986 c-2 -2 -56 -6 -119 -9 -63 -4 -126 -9 -140 -12 -14 -3
-34 -7 -46 -9 -57 -11 -161 -38 -179 -46 -11 -5 -31 -12 -45 -15 -50 -14 -237
-109 -310 -158 -105 -70 -154 -110 -241 -199 -365 -369 -513 -898 -394 -1403
67 -285 200 -523 404 -725 105 -104 167 -153 253 -205 157 -95 302 -154 470
-194 28 -7 155 -11 320 -11 271 0 274 0 384 30 261 70 469 192 664 389 245
248 388 549 427 901 12 110 4 394 -13 421 -2 4 -6 24 -10 45 -31 194 -156 460
-302 644 -63 79 -208 215 -299 279 -87 62 -312 181 -343 181 -9 0 -20 4 -26 9
-10 10 -149 47 -209 57 -22 3 -43 8 -46 9 -3 2 -46 7 -95 10 -49 4 -92 9 -95
11 -3 2 -8 2 -10 0z"/>
</g>
</svg>
