<?xml version="1.0" encoding="UTF-8" standalone="no"?>
<svg
   width="244.42"
   height="424.099"
   viewBox="0 0 244.42 424.099"
   fill="none"
   version="1.1"
   id="svg2168"
   xmlns="http://www.w3.org/2000/svg"
   xmlns:svg="http://www.w3.org/2000/svg">
  <defs
     id="defs2166">
    <linearGradient
       id="paint23_linear_110_3490"
       x1="670.17102"
       y1="121.012"
       x2="630.74597"
       y2="99.785896"
       gradientUnits="userSpaceOnUse"
       gradientTransform="matrix(0.95213169,0.04364649,0.03795938,0.88781752,49.132879,-0.45655268)">
      <stop
         stop-opacity="0"
         id="stop1866" />
      <stop
         offset="1"
         stop-color="#106D90"
         id="stop1868" />
    </linearGradient>
    <linearGradient
       id="paint24_linear_110_3490"
       x1="644.65302"
       y1="87.425003"
       x2="618.25702"
       y2="73.2136"
       gradientUnits="userSpaceOnUse"
       gradientTransform="matrix(0.95213169,0.04364649,0.03795938,0.88781752,49.132879,-0.45655268)">
      <stop
         stop-color="#A43440"
         id="stop1871" />
      <stop
         offset="1"
         stop-color="#C73634"
         id="stop1873" />
    </linearGradient>
    <linearGradient
       id="paint25_linear_110_3490"
       x1="625.15002"
       y1="123.649"
       x2="598.75403"
       y2="109.437"
       gradientUnits="userSpaceOnUse"
       gradientTransform="matrix(0.95213169,0.04364649,0.03795938,0.88781752,49.132879,-0.45655268)">
      <stop
         stop-color="#A43440"
         id="stop1876" />
      <stop
         offset="1"
         stop-color="#C73634"
         id="stop1878" />
    </linearGradient>
    <radialGradient
       id="paint26_radial_110_3490"
       cx="0"
       cy="0"
       r="1"
       gradientUnits="userSpaceOnUse"
       gradientTransform="matrix(14.236364,-25.922861,52.641941,28.235025,588.7809,78.839619)">
      <stop
         stop-color="#F4BAB3"
         id="stop1881" />
      <stop
         offset="0.77"
         stop-color="#8D6FC7"
         id="stop1883" />
      <stop
         offset="0.96"
         stop-color="#B695E5"
         id="stop1885" />
    </radialGradient>
    <radialGradient
       id="paint27_radial_110_3490"
       cx="0"
       cy="0"
       r="1"
       gradientUnits="userSpaceOnUse"
       gradientTransform="matrix(3.8266825,-6.9679706,6.9951077,3.7518951,561.31111,69.42723)">
      <stop
         offset="0.02"
         stop-color="#AB5E75"
         id="stop1888" />
      <stop
         offset="0.25"
         stop-color="#9F577B"
         id="stop1890" />
      <stop
         offset="0.67"
         stop-color="#7F458C"
         id="stop1892" />
      <stop
         offset="0.99"
         stop-color="#61349C"
         id="stop1894" />
    </radialGradient>
    <linearGradient
       id="paint28_linear_110_3490"
       x1="537.63599"
       y1="53.3353"
       x2="534.33801"
       y2="51.559799"
       gradientUnits="userSpaceOnUse"
       gradientTransform="matrix(0.95213169,0.04364649,0.03795938,0.88781752,49.132879,-0.45655268)">
      <stop
         stop-color="#FFFF18"
         id="stop1897" />
      <stop
         offset="1"
         stop-color="#FF7400"
         id="stop1899" />
    </linearGradient>
    <radialGradient
       id="paint29_radial_110_3490"
       cx="0"
       cy="0"
       r="1"
       gradientUnits="userSpaceOnUse"
       gradientTransform="matrix(6.7599633,-12.309155,25.121622,13.47423,630.59015,106.85321)">
      <stop
         offset="0.02"
         stop-color="#8881BC"
         id="stop1902" />
      <stop
         offset="0.29"
         stop-color="#8375B7"
         id="stop1904" />
      <stop
         offset="0.77"
         stop-color="#7555AA"
         id="stop1906" />
      <stop
         offset="0.99"
         stop-color="#6D43A3"
         id="stop1908" />
    </radialGradient>
    <radialGradient
       id="paint30_radial_110_3490"
       cx="0"
       cy="0"
       r="1"
       gradientUnits="userSpaceOnUse"
       gradientTransform="matrix(7.1881869,-13.088903,14.583831,7.8221819,592.00399,86.079976)">
      <stop
         offset="0.02"
         stop-color="#8881BC"
         id="stop1911" />
      <stop
         offset="0.29"
         stop-color="#8375B7"
         id="stop1913" />
      <stop
         offset="0.77"
         stop-color="#7555AA"
         id="stop1915" />
      <stop
         offset="0.99"
         stop-color="#6D43A3"
         id="stop1917" />
    </radialGradient>
    <radialGradient
       id="paint31_radial_110_3490"
       cx="0"
       cy="0"
       r="1"
       gradientUnits="userSpaceOnUse"
       gradientTransform="matrix(8.9430009,-16.284227,30.266947,16.233976,577.76143,79.146125)">
      <stop
         offset="0.02"
         stop-color="#725EB0"
         id="stop1920" />
      <stop
         offset="0.38"
         stop-color="#6D52AA"
         id="stop1922" />
      <stop
         offset="0.99"
         stop-color="#61349C"
         id="stop1924" />
    </radialGradient>
    <linearGradient
       id="paint32_linear_110_3490"
       x1="576.19202"
       y1="73.875099"
       x2="553.13397"
       y2="61.4604"
       gradientUnits="userSpaceOnUse"
       gradientTransform="matrix(0.95213169,0.04364649,0.03795938,0.88781752,49.132879,-0.45655268)">
      <stop
         stop-color="#FFFF29"
         id="stop1927" />
      <stop
         offset="1"
         stop-color="#FF7E59"
         id="stop1929" />
    </linearGradient>
    <radialGradient
       id="paint33_radial_110_3490"
       cx="0"
       cy="0"
       r="1"
       gradientUnits="userSpaceOnUse"
       gradientTransform="matrix(2.6555584,-4.8354816,9.868646,5.2931457,651.75003,117.92882)">
      <stop
         offset="0.02"
         stop-color="#725EB0"
         id="stop1932" />
      <stop
         offset="0.38"
         stop-color="#6D52AA"
         id="stop1934" />
      <stop
         offset="0.99"
         stop-color="#61349C"
         id="stop1936" />
    </radialGradient>
    <radialGradient
       id="paint34_radial_110_3490"
       cx="0"
       cy="0"
       r="1"
       gradientUnits="userSpaceOnUse"
       gradientTransform="matrix(4.8938517,-8.9111692,9.928847,5.325435,573.15037,75.825681)">
      <stop
         offset="0.02"
         stop-color="#8881BC"
         id="stop1939" />
      <stop
         offset="0.29"
         stop-color="#8375B7"
         id="stop1941" />
      <stop
         offset="0.77"
         stop-color="#7555AA"
         id="stop1943" />
      <stop
         offset="0.99"
         stop-color="#6D43A3"
         id="stop1945" />
    </radialGradient>
    <linearGradient
       id="paint35_linear_110_3490"
       x1="596.11298"
       y1="85.610497"
       x2="594.72302"
       y2="84.8619"
       gradientUnits="userSpaceOnUse"
       gradientTransform="matrix(0.95213169,0.04364649,0.03795938,0.88781752,49.132879,-0.45655268)">
      <stop
         stop-color="#8DC7FF"
         id="stop1948" />
      <stop
         offset="0.32"
         stop-color="#5C4D86"
         id="stop1950" />
    </linearGradient>
    <radialGradient
       id="paint36_radial_110_3490"
       cx="0"
       cy="0"
       r="1"
       gradientUnits="userSpaceOnUse"
       gradientTransform="matrix(0.26405082,-0.48080771,0.53572269,0.28734017,619.71374,101.57149)">
      <stop
         offset="0.02"
         stop-color="#8881BC"
         id="stop1953" />
      <stop
         offset="0.29"
         stop-color="#8375B7"
         id="stop1955" />
      <stop
         offset="0.77"
         stop-color="#7555AA"
         id="stop1957" />
      <stop
         offset="1"
         stop-color="#6D43A3"
         id="stop1959" />
    </radialGradient>
    <linearGradient
       id="paint37_linear_110_3490"
       x1="592.68298"
       y1="83.763496"
       x2="591.28998"
       y2="83.013397"
       gradientUnits="userSpaceOnUse"
       gradientTransform="matrix(0.95213169,0.04364649,0.03795938,0.88781752,49.132879,-0.45655268)">
      <stop
         stop-color="#8DC7FF"
         id="stop1962" />
      <stop
         offset="0.32"
         stop-color="#5C4D86"
         id="stop1964" />
    </linearGradient>
    <radialGradient
       id="paint38_radial_110_3490"
       cx="0"
       cy="0"
       r="1"
       gradientUnits="userSpaceOnUse"
       gradientTransform="matrix(0.26405082,-0.48080771,0.53572098,0.28733924,616.3642,99.774448)">
      <stop
         offset="0.02"
         stop-color="#8881BC"
         id="stop1967" />
      <stop
         offset="0.29"
         stop-color="#8375B7"
         id="stop1969" />
      <stop
         offset="0.77"
         stop-color="#7555AA"
         id="stop1971" />
      <stop
         offset="1"
         stop-color="#6D43A3"
         id="stop1973" />
    </radialGradient>
    <radialGradient
       id="paint39_radial_110_3490"
       cx="0"
       cy="0"
       r="1"
       gradientUnits="userSpaceOnUse"
       gradientTransform="matrix(0.26405082,-0.48080771,0.53572098,0.28733924,588.03347,97.563173)">
      <stop
         stop-color="#F4BAB3"
         id="stop1976" />
      <stop
         offset="1"
         stop-color="#8D6FC7"
         id="stop1978" />
    </radialGradient>
    <radialGradient
       id="paint40_radial_110_3490"
       cx="0"
       cy="0"
       r="1"
       gradientUnits="userSpaceOnUse"
       gradientTransform="matrix(0.26405082,-0.48080771,0.53572269,0.28734017,579.01361,91.341723)">
      <stop
         stop-color="#F4BAB3"
         id="stop1981" />
      <stop
         offset="1"
         stop-color="#8D6FC7"
         id="stop1983" />
    </radialGradient>
    <radialGradient
       id="paint41_radial_110_3490"
       cx="0"
       cy="0"
       r="1"
       gradientUnits="userSpaceOnUse"
       gradientTransform="matrix(0.26405082,-0.48080771,0.53572269,0.28734017,598.75104,95.929661)">
      <stop
         stop-color="#F4BAB3"
         id="stop1986" />
      <stop
         offset="1"
         stop-color="#8D6FC7"
         id="stop1988" />
    </radialGradient>
    <radialGradient
       id="paint42_radial_110_3490"
       cx="0"
       cy="0"
       r="1"
       gradientUnits="userSpaceOnUse"
       gradientTransform="matrix(0.26405082,-0.48080771,0.53572098,0.28733924,604.75128,86.934575)">
      <stop
         stop-color="#F4BAB3"
         id="stop1991" />
      <stop
         offset="1"
         stop-color="#8D6FC7"
         id="stop1993" />
    </radialGradient>
    <radialGradient
       id="paint43_radial_110_3490"
       cx="0"
       cy="0"
       r="1"
       gradientUnits="userSpaceOnUse"
       gradientTransform="matrix(0.26405082,-0.48080771,0.53572269,0.28734017,601.92494,77.149605)">
      <stop
         stop-color="#F4BAB3"
         id="stop1996" />
      <stop
         offset="1"
         stop-color="#8D6FC7"
         id="stop1998" />
    </radialGradient>
    <radialGradient
       id="paint44_radial_110_3490"
       cx="0"
       cy="0"
       r="1"
       gradientUnits="userSpaceOnUse"
       gradientTransform="matrix(0.26405082,-0.48080771,0.53572269,0.28734017,589.35742,71.67615)">
      <stop
         stop-color="#F4BAB3"
         id="stop2001" />
      <stop
         offset="1"
         stop-color="#8D6FC7"
         id="stop2003" />
    </radialGradient>
    <radialGradient
       id="paint45_radial_110_3490"
       cx="0"
       cy="0"
       r="1"
       gradientUnits="userSpaceOnUse"
       gradientTransform="matrix(0.26405082,-0.48080771,0.53572269,0.28734017,580.51933,73.150729)">
      <stop
         stop-color="#F4BAB3"
         id="stop2006" />
      <stop
         offset="1"
         stop-color="#8D6FC7"
         id="stop2008" />
    </radialGradient>
    <radialGradient
       id="paint46_radial_110_3490"
       cx="0"
       cy="0"
       r="1"
       gradientUnits="userSpaceOnUse"
       gradientTransform="matrix(0.26405082,-0.48080771,0.53572098,0.28733924,575.10673,80.709839)">
      <stop
         stop-color="#F4BAB3"
         id="stop2011" />
      <stop
         offset="1"
         stop-color="#8D6FC7"
         id="stop2013" />
    </radialGradient>
    <linearGradient
       id="paint47_linear_110_3490"
       x1="637.73199"
       y1="100.28"
       x2="608.40302"
       y2="84.488899"
       gradientUnits="userSpaceOnUse"
       gradientTransform="matrix(0.95213169,0.04364649,0.03795938,0.88781752,49.132879,-0.45655268)">
      <stop
         stop-color="#A43411"
         id="stop2016" />
      <stop
         offset="1"
         stop-color="#C73634"
         id="stop2018" />
    </linearGradient>
    <linearGradient
       id="paint48_linear_110_3490"
       x1="572.922"
       y1="47.405701"
       x2="573.86798"
       y2="45.647999"
       gradientUnits="userSpaceOnUse"
       gradientTransform="matrix(0.95213169,0.04364649,0.03795938,0.88781752,49.132879,-0.45655268)">
      <stop
         stop-color="#FFFF18"
         id="stop2021" />
      <stop
         offset="1"
         stop-color="#FF7400"
         id="stop2023" />
    </linearGradient>
    <linearGradient
       id="paint49_linear_110_3490"
       x1="551.02301"
       y1="86.942902"
       x2="551.91302"
       y2="85.289803"
       gradientUnits="userSpaceOnUse"
       gradientTransform="matrix(0.95213169,0.04364649,0.03795938,0.88781752,49.132879,-0.45655268)">
      <stop
         stop-color="#FFFF18"
         id="stop2026" />
      <stop
         offset="1"
         stop-color="#FF7400"
         id="stop2028" />
    </linearGradient>
    <linearGradient
       id="paint50_linear_110_3490"
       x1="599.97101"
       y1="101.877"
       x2="598.36298"
       y2="101.011"
       gradientUnits="userSpaceOnUse"
       gradientTransform="matrix(0.95213169,0.04364649,0.03795938,0.88781752,49.132879,-0.45655268)">
      <stop
         stop-color="#8DC7FF"
         id="stop2031" />
      <stop
         offset="0.32"
         stop-color="#5C4D86"
         id="stop2033" />
    </linearGradient>
    <linearGradient
       id="paint51_linear_110_3490"
       x1="610.91302"
       y1="77.544701"
       x2="609.30603"
       y2="76.679001"
       gradientUnits="userSpaceOnUse"
       gradientTransform="matrix(0.95213169,0.04364649,0.03795938,0.88781752,49.132879,-0.45655268)">
      <stop
         stop-color="#8DC7FF"
         id="stop2036" />
      <stop
         offset="0.32"
         stop-color="#5C4D86"
         id="stop2038" />
    </linearGradient>
    <linearGradient
       id="paint52_linear_110_3490"
       x1="604.78699"
       y1="88.625504"
       x2="603.17902"
       y2="87.759804"
       gradientUnits="userSpaceOnUse"
       gradientTransform="matrix(0.95213169,0.04364649,0.03795938,0.88781752,49.132879,-0.45655268)">
      <stop
         stop-color="#8DC7FF"
         id="stop2041" />
      <stop
         offset="0.32"
         stop-color="#5C4D86"
         id="stop2043" />
    </linearGradient>
    <radialGradient
       id="paint53_radial_110_3490"
       cx="0"
       cy="0"
       r="1"
       gradientUnits="userSpaceOnUse"
       gradientTransform="matrix(0.44022661,-4.7127402,5.0478185,0.82233211,627.69069,104.07048)">
      <stop
         stop-color="#003CEE"
         id="stop2046" />
      <stop
         offset="0.06"
         stop-color="#0036D6"
         id="stop2048" />
      <stop
         offset="0.2"
         stop-color="#00289E"
         id="stop2050" />
      <stop
         offset="0.34"
         stop-color="#001C6D"
         id="stop2052" />
      <stop
         offset="0.48"
         stop-color="#001246"
         id="stop2054" />
      <stop
         offset="0.62"
         stop-color="#000A27"
         id="stop2056" />
      <stop
         offset="0.75"
         stop-color="#000412"
         id="stop2058" />
      <stop
         offset="0.88"
         stop-color="#000104"
         id="stop2060" />
      <stop
         offset="1"
         id="stop2062" />
    </radialGradient>
    <radialGradient
       id="paint54_radial_110_3490"
       cx="0"
       cy="0"
       r="1"
       gradientUnits="userSpaceOnUse"
       gradientTransform="matrix(0.35124401,-3.7600809,4.0274124,0.65610593,596.28574,65.718195)">
      <stop
         stop-color="#FF9A00"
         id="stop2065" />
      <stop
         offset="0.09"
         stop-color="#D68100"
         id="stop2067" />
      <stop
         offset="0.23"
         stop-color="#9E5F00"
         id="stop2069" />
      <stop
         offset="0.36"
         stop-color="#6E4200"
         id="stop2071" />
      <stop
         offset="0.5"
         stop-color="#462A00"
         id="stop2073" />
      <stop
         offset="0.63"
         stop-color="#271800"
         id="stop2075" />
      <stop
         offset="0.76"
         stop-color="#120B00"
         id="stop2077" />
      <stop
         offset="0.89"
         stop-color="#040300"
         id="stop2079" />
      <stop
         offset="1"
         id="stop2081" />
    </radialGradient>
    <radialGradient
       id="paint55_radial_110_3490"
       cx="0"
       cy="0"
       r="1"
       gradientUnits="userSpaceOnUse"
       gradientTransform="matrix(0.35124401,-3.7600809,4.0274124,0.65610593,562.14418,69.95338)">
      <stop
         stop-color="#FF9A00"
         id="stop2084" />
      <stop
         offset="0.09"
         stop-color="#D68100"
         id="stop2086" />
      <stop
         offset="0.23"
         stop-color="#9E5F00"
         id="stop2088" />
      <stop
         offset="0.36"
         stop-color="#6E4200"
         id="stop2090" />
      <stop
         offset="0.5"
         stop-color="#462A00"
         id="stop2092" />
      <stop
         offset="0.63"
         stop-color="#271800"
         id="stop2094" />
      <stop
         offset="0.76"
         stop-color="#120B00"
         id="stop2096" />
      <stop
         offset="0.89"
         stop-color="#040300"
         id="stop2098" />
      <stop
         offset="1"
         id="stop2100" />
    </radialGradient>
    <radialGradient
       id="paint56_radial_110_3490"
       cx="0"
       cy="0"
       r="1"
       gradientUnits="userSpaceOnUse"
       gradientTransform="matrix(0.18152403,-1.9432618,2.0814348,0.33908324,577.26868,100.00386)">
      <stop
         stop-color="#FF9A00"
         id="stop2103" />
      <stop
         offset="0.09"
         stop-color="#D68100"
         id="stop2105" />
      <stop
         offset="0.23"
         stop-color="#9E5F00"
         id="stop2107" />
      <stop
         offset="0.36"
         stop-color="#6E4200"
         id="stop2109" />
      <stop
         offset="0.5"
         stop-color="#462A00"
         id="stop2111" />
      <stop
         offset="0.63"
         stop-color="#271800"
         id="stop2113" />
      <stop
         offset="0.76"
         stop-color="#120B00"
         id="stop2115" />
      <stop
         offset="0.89"
         stop-color="#040300"
         id="stop2117" />
      <stop
         offset="1"
         id="stop2119" />
    </radialGradient>
    <radialGradient
       id="paint57_radial_110_3490"
       cx="0"
       cy="0"
       r="1"
       gradientUnits="userSpaceOnUse"
       gradientTransform="matrix(0.16971123,-1.8168028,1.9459877,0.31701777,632.77153,95.019336)">
      <stop
         stop-color="#003CEE"
         id="stop2122" />
      <stop
         offset="0.06"
         stop-color="#0036D6"
         id="stop2124" />
      <stop
         offset="0.2"
         stop-color="#00289E"
         id="stop2126" />
      <stop
         offset="0.34"
         stop-color="#001C6D"
         id="stop2128" />
      <stop
         offset="0.48"
         stop-color="#001246"
         id="stop2130" />
      <stop
         offset="0.62"
         stop-color="#000A27"
         id="stop2132" />
      <stop
         offset="0.75"
         stop-color="#000412"
         id="stop2134" />
      <stop
         offset="0.88"
         stop-color="#000104"
         id="stop2136" />
      <stop
         offset="1"
         id="stop2138" />
    </radialGradient>
    <radialGradient
       id="paint58_radial_110_3490"
       cx="0"
       cy="0"
       r="1"
       gradientUnits="userSpaceOnUse"
       gradientTransform="matrix(0.16971123,-1.8168028,1.9459782,0.31701621,623.33886,116.2144)">
      <stop
         stop-color="#003CEE"
         id="stop2141" />
      <stop
         offset="0.06"
         stop-color="#0036D6"
         id="stop2143" />
      <stop
         offset="0.2"
         stop-color="#00289E"
         id="stop2145" />
      <stop
         offset="0.34"
         stop-color="#001C6D"
         id="stop2147" />
      <stop
         offset="0.48"
         stop-color="#001246"
         id="stop2149" />
      <stop
         offset="0.62"
         stop-color="#000A27"
         id="stop2151" />
      <stop
         offset="0.75"
         stop-color="#000412"
         id="stop2153" />
      <stop
         offset="0.88"
         stop-color="#000104"
         id="stop2155" />
      <stop
         offset="1"
         id="stop2157" />
    </radialGradient>
    <clipPath
       id="clip1_110_3490">
      <rect
         width="52.369801"
         height="153.935"
         fill="#ffffff"
         transform="rotate(-61.702,321.69875,-399.5541)"
         id="rect2163"
         x="0"
         y="0" />
    </clipPath>
  </defs>
  <g
     clip-path="url(#clip1_110_3490)"
     id="g1743"
     transform="matrix(2.2712827,2.7421719,-4.372803,1.2387275,-842.88332,-1612.3842)">
    <path
       style="mix-blend-mode:screen;fill:url(#paint23_linear_110_3490);stroke-width:0.918511"
       d="m 648.24412,125.56557 38.61694,19.44836 6.31001,-14.72975 -36.39597,-19.8883 c 0,0 -7.08434,10.59917 -8.53098,15.16969 z"
       fill="url(#paint23_linear_110_3490)"
       id="path1471" />
    <path
       fill-rule="evenodd"
       clip-rule="evenodd"
       d="m 640.57761,94.36642 2.01863,-6.505906 c 0,0 12.64167,5.563247 22.31818,19.875176 l -0.30509,0.55444 -17.91365,-10.183652 -0.68733,1.148747 z"
       fill="url(#paint24_linear_110_3490)"
       id="path1473"
       style="fill:url(#paint24_linear_110_3490);stroke-width:0.918511" />
    <path
       fill-rule="evenodd"
       clip-rule="evenodd"
       d="m 625.90839,121.1489 -4.54317,5.35718 c 0,0 11.61014,7.44096 29.02471,7.66332 l 0.30507,-0.55489 -18.39372,-9.27685 0.59979,-1.19618 z"
       fill="url(#paint25_linear_110_3490)"
       id="path1475"
       style="fill:url(#paint25_linear_110_3490);stroke-width:0.918511" />
    <path
       fill-rule="evenodd"
       clip-rule="evenodd"
       d="m 562.78377,69.999266 c -4.16745,7.588455 9.64411,30.378754 29.10432,39.573714 19.45925,9.19476 51.54895,16.26666 51.54895,16.26666 l 5.44616,-9.66377 5.23127,-9.77774 c 0,0 -23.50304,-22.739509 -41.89255,-33.851693 C 593.8324,61.434252 566.92301,62.462062 562.78377,69.999266 Z"
       fill="url(#paint26_radial_110_3490)"
       id="path1477"
       style="fill:url(#paint26_radial_110_3490);stroke-width:0.918511" />
    <path
       fill-rule="evenodd"
       clip-rule="evenodd"
       d="m 643.44108,125.84514 c 0,0 4.97716,-11.65386 10.67743,-19.4416 0,0 -4.76513,11.50136 -10.67743,19.4416 z"
       fill="#31165f"
       id="path1479"
       style="stroke-width:0.918511" />
    <path
       fill-rule="evenodd"
       clip-rule="evenodd"
       d="m 565.75089,84.788343 c 0,0 2.11246,-12.779197 12.50736,-20.448396 0,0 -12.39597,0.183596 -15.47448,5.65923 -2.77035,4.92666 2.96712,14.789166 2.96712,14.789166 z"
       fill="url(#paint27_radial_110_3490)"
       id="path1481"
       style="fill:url(#paint27_radial_110_3490);stroke-width:0.918511" />
    <path
       d="m 578.36924,64.46882 c -9.7731,7.054411 -12.41756,20.214866 -12.45038,20.358591 l -0.33318,-0.08049 c 0.0228,-0.133016 2.69536,-13.414732 12.56544,-20.534431 z"
       fill="#53345f"
       id="path1483"
       style="stroke-width:0.918511" />
    <path
       fill-rule="evenodd"
       clip-rule="evenodd"
       d="m 562.04832,72.912114 3.43994,-5.512408 c 0,0 -3.86817,1.653138 -3.43994,5.512408 z"
       fill="#53345f"
       id="path1485"
       style="stroke-width:0.918511" />
    <path
       fill-rule="evenodd"
       clip-rule="evenodd"
       d="m 562.18051,71.958729 c 0.39137,-1.159036 0.95,-2.25086 1.66287,-3.247183 0,0 -3.3501,-0.98737 -3.99026,-0.06888 -0.63923,0.918446 2.32739,3.316062 2.32739,3.316063 z"
       fill="url(#paint28_linear_110_3490)"
       id="path1487"
       style="fill:url(#paint28_linear_110_3490);stroke-width:0.918511" />
    <path
       style="mix-blend-mode:multiply;fill:url(#paint29_radial_110_3490);stroke-width:0.918511"
       opacity="0.5"
       fill-rule="evenodd"
       clip-rule="evenodd"
       d="m 622.59687,120.48584 c 0,0 3.0244,-19.60982 14.05002,-29.774006 7.01629,5.856339 17.46982,15.694106 17.46982,15.694106 0,0 -5.24239,6.80622 -10.67651,19.44094 0.002,-0.002 -10.78314,-1.87835 -20.84333,-5.36104 z"
       fill="url(#paint29_radial_110_3490)"
       id="path1489" />
    <path
       style="mix-blend-mode:multiply;fill:url(#paint30_radial_110_3490);stroke-width:0.918511"
       opacity="0.5"
       fill-rule="evenodd"
       clip-rule="evenodd"
       d="m 576.11574,77.972122 c -3.16247,7.157106 3.23268,16.910648 10.97938,21.470112 7.74575,4.559416 16.1585,0.648746 19.75086,-6.410504 3.59237,-7.059157 1.44548,-15.666131 -7.66851,-19.510917 -8.232,-3.485898 -19.54755,-3.50318 -23.06173,4.451309 z"
       fill="url(#paint30_radial_110_3490)"
       id="path1491" />
    <path
       fill-rule="evenodd"
       clip-rule="evenodd"
       d="m 574.85432,77.29555 c -3.16247,7.157105 3.23268,16.910736 10.97843,21.470067 7.7467,4.559463 16.15944,0.648787 19.75472,-6.408908 3.59433,-7.057738 1.44452,-15.666264 -7.67142,-19.512379 -8.22909,-3.484525 -19.54464,-3.501719 -23.06173,4.45122 z"
       fill="#31165f"
       id="path1493"
       style="stroke-width:0.918511" />
    <path
       fill-rule="evenodd"
       clip-rule="evenodd"
       d="m 573.97511,76.823816 c -3.16247,7.157016 3.23268,16.910647 10.97842,21.470067 7.74576,4.559417 16.15945,0.648698 19.75378,-6.409041 3.59528,-7.057606 1.44547,-15.666132 -7.67047,-19.512336 -8.23005,-3.484479 -19.54464,-3.501719 -23.06173,4.45131 z"
       fill="url(#paint31_radial_110_3490)"
       id="path1495"
       style="fill:url(#paint31_radial_110_3490);stroke-width:0.918511" />
    <path
       fill-rule="evenodd"
       clip-rule="evenodd"
       d="m 577.04993,77.884959 c -2.95236,6.359255 2.4894,13.261911 8.54595,16.829641 6.05654,3.567731 12.63023,0.472828 15.4549,-5.072392 2.82466,-5.545221 1.16056,-12.284098 -5.9506,-15.291881 -6.44923,-2.728807 -14.97916,-3.11451 -18.05025,3.534632 z"
       fill="#a6345f"
       id="path1497"
       style="stroke-width:0.918511" />
    <path
       fill-rule="evenodd"
       clip-rule="evenodd"
       d="m 601.96746,82.700256 c 0.41448,2.40432 0.0448,4.804772 -1.06174,6.882935 -2.68789,5.276984 -9.57965,8.489509 -15.33499,5.099066 -1.96998,-1.157673 -3.72073,-2.633147 -5.16058,-4.349204 -2.834,-3.385273 -4.21843,-7.672401 -2.33958,-11.935496 2.75478,-6.312843 11.05447,-5.955683 17.17649,-3.367964 3.92995,1.680901 6.10597,4.546099 6.7204,7.670663 z"
       fill="url(#paint32_linear_110_3490)"
       id="path1499"
       style="fill:url(#paint32_linear_110_3490);stroke-width:0.918511" />
    <path
       d="m 605.59916,92.34103 -0.0749,0.136831 21.99172,11.795399 0.0749,-0.13674 z"
       fill="#53345f"
       id="path1501"
       style="stroke-width:0.918511" />
    <path
       d="m 622.66871,120.49887 -0.16704,-0.0395 c 4.25891,-22.007474 13.9767,-29.733143 14.07229,-29.808685 l 0.1156,0.125451 c -0.0877,0.08246 -9.76003,7.782303 -14.02085,29.722794 z"
       fill="#53345f"
       id="path1503"
       style="stroke-width:0.918511" />
    <path
       d="m 614.53784,118.04475 -0.16789,0.007 c -0.013,-0.0795 -1.01285,-8.13154 4.0207,-18.755416 l 0.15075,0.08108 c -5.02603,10.577436 -4.01357,18.588536 -4.00356,18.666966 z"
       fill="#53345f"
       id="path1505"
       style="stroke-width:0.918511" />
    <path
       fill-rule="evenodd"
       clip-rule="evenodd"
       d="m 644.61497,110.42796 -9.64017,-4.81647 0.62452,-2.68472 10.01978,5.67175 z"
       fill="#31165f"
       id="path1507"
       style="stroke-width:0.918511" />
    <path
       fill-rule="evenodd"
       clip-rule="evenodd"
       d="m 644.51615,124.34114 c 0,0 3.7329,-8.92845 9.09663,-16.76395 l 3.97075,2.7908 -9.11825,15.50279 z"
       fill="url(#paint33_radial_110_3490)"
       id="path1509"
       style="fill:url(#paint33_radial_110_3490);stroke-width:0.918511" />
    <path
       opacity="0.5"
       fill-rule="evenodd"
       clip-rule="evenodd"
       d="m 646.51412,125.10881 c 0.0198,-2.67151 0.71169,-5.24663 2.01994,-7.5197 2.16999,-3.74344 8.13404,-7.87332 8.13404,-7.87332 l -3.05532,-2.1386 c 0,0 -5.9323,8.49481 -9.09663,16.76395 z"
       fill="#31165f"
       id="path1511"
       style="stroke-width:0.918511" />
    <path
       d="m 582.73842,76.044923 c 1.83582,-0.446605 3.76487,-0.601847 5.71045,-0.459495 l -0.12532,-1.774445 c 0,0 -3.26793,-0.443716 -5.26256,0.933699 z"
       fill="#ffffff"
       id="path1513"
       style="stroke-width:0.918511" />
    <path
       d="m 588.54821,93.822265 2.73346,0.05601 0.1162,1.472583 -2.2139,-0.172639 z"
       fill="#ffffff"
       id="path1515"
       style="stroke-width:0.918511" />
    <path
       style="mix-blend-mode:multiply;fill:url(#paint34_radial_110_3490);stroke-width:0.918511"
       opacity="0.5"
       fill-rule="evenodd"
       clip-rule="evenodd"
       d="m 568.38657,89.047324 c 0,0 -0.26837,-14.055743 13.56947,-24.76683 l -3.69779,0.05945 c 0,0 -8.65502,5.823156 -12.50735,20.448486 z"
       fill="url(#paint34_radial_110_3490)"
       id="path1517" />
    <path
       fill-rule="evenodd"
       clip-rule="evenodd"
       d="m 619.61888,100.59741 c 0.0895,0.0482 0.16918,0.1117 0.23415,0.18662 0.066,0.075 0.11612,0.16004 0.14753,0.25017 0.0314,0.0902 0.0449,0.18389 0.0384,0.27547 -0.007,0.0916 -0.0332,0.17951 -0.0783,0.25852 -0.0872,0.16063 -0.2419,0.27662 -0.43188,0.32267 -0.18903,0.046 -0.39643,0.0182 -0.57822,-0.0772 -0.17903,-0.098 -0.31594,-0.25514 -0.37978,-0.43706 -0.0647,-0.18195 -0.0502,-0.37383 0.038,-0.53371 0.0431,-0.0798 0.10289,-0.14946 0.17748,-0.20505 0.0737,-0.0555 0.1603,-0.0959 0.25435,-0.11869 0.0931,-0.0228 0.19267,-0.0277 0.29207,-0.0143 0.0994,0.0134 0.19673,0.0449 0.28618,0.0925 z"
       fill="url(#paint35_linear_110_3490)"
       id="path1519"
       style="fill:url(#paint35_linear_110_3490);stroke-width:0.918511" />
    <path
       fill-rule="evenodd"
       clip-rule="evenodd"
       d="m 619.55189,100.71955 c 0.14123,0.0805 0.24733,0.20627 0.29723,0.35086 0.0489,0.14464 0.0374,0.29652 -0.0322,0.42358 -0.0696,0.12706 -0.19209,0.21927 -0.34155,0.25716 -0.15044,0.0378 -0.31471,0.0182 -0.45942,-0.0546 -0.14123,-0.0805 -0.24734,-0.20636 -0.29723,-0.35095 -0.0489,-0.14455 -0.0374,-0.29651 0.0322,-0.42349 0.0696,-0.12715 0.19208,-0.21936 0.34156,-0.25716 0.14947,-0.0378 0.31471,-0.0182 0.45941,0.0546 z"
       fill="url(#paint36_radial_110_3490)"
       id="path1521"
       style="fill:url(#paint36_radial_110_3490);stroke-width:0.918511" />
    <path
       fill-rule="evenodd"
       clip-rule="evenodd"
       d="m 616.28005,98.806445 c 0.17813,0.09898 0.3141,0.256564 0.37699,0.438257 0.0619,0.181737 0.0473,0.37299 -0.0418,0.531946 -0.0881,0.160504 -0.24382,0.276182 -0.43382,0.321872 -0.18904,0.0457 -0.3974,0.0178 -0.57918,-0.0778 -0.17624,-0.09908 -0.31124,-0.255989 -0.37313,-0.436751 -0.0628,-0.180805 -0.0481,-0.370991 0.0401,-0.529542 0.0422,-0.08029 0.1019,-0.150392 0.17648,-0.20634 0.0737,-0.0559 0.16026,-0.09659 0.2543,-0.119659 0.094,-0.02298 0.19362,-0.02799 0.29301,-0.01466 0.10035,0.01346 0.19767,0.04485 0.28714,0.09264 z"
       fill="url(#paint37_linear_110_3490)"
       id="path1523"
       style="fill:url(#paint37_linear_110_3490);stroke-width:0.918511" />
    <path
       fill-rule="evenodd"
       clip-rule="evenodd"
       d="m 616.21305,98.928488 c 0.14123,0.08047 0.24734,0.206364 0.29628,0.350912 0.0499,0.144591 0.0384,0.296557 -0.0312,0.42353 -0.0696,0.127151 -0.19208,0.21936 -0.34251,0.257123 -0.14948,0.0378 -0.31375,0.01822 -0.45941,-0.05464 -0.071,-0.03843 -0.13401,-0.08917 -0.18598,-0.149147 -0.052,-0.05998 -0.091,-0.127956 -0.11498,-0.20003 -0.025,-0.07203 -0.0339,-0.146693 -0.0274,-0.219497 0.007,-0.07268 0.03,-0.142168 0.0663,-0.204302 0.0324,-0.06435 0.0794,-0.120855 0.13733,-0.166224 0.0579,-0.04529 0.12683,-0.07836 0.20109,-0.09738 0.0743,-0.01901 0.15389,-0.02351 0.23224,-0.01328 0.0793,0.0103 0.15735,0.03504 0.22834,0.07294 z"
       fill="url(#paint38_radial_110_3490)"
       id="path1525"
       style="fill:url(#paint38_radial_110_3490);stroke-width:0.918511" />
    <path
       d="m 588.37397,97.592512 c 0.18424,-0.335885 0.0307,-0.770545 -0.34179,-0.970771 -0.37347,-0.200272 -0.82584,-0.09031 -1.01009,0.245571 -0.18519,0.33584 -0.0317,0.7705 0.34179,0.97077 0.37347,0.200273 0.82584,0.09031 1.01009,-0.24557 z"
       fill="#31165f"
       id="path1527"
       style="stroke-width:0.918511" />
    <path
       fill-rule="evenodd"
       clip-rule="evenodd"
       d="m 587.96311,96.739967 c 0.14123,0.08047 0.24734,0.206365 0.29723,0.350956 0.0489,0.144546 0.0374,0.296423 -0.0322,0.423485 -0.0696,0.127063 -0.19208,0.219361 -0.34155,0.257167 -0.15043,0.03777 -0.31472,0.01819 -0.45943,-0.05464 -0.14029,-0.08078 -0.2464,-0.206586 -0.29532,-0.350868 -0.0489,-0.144191 -0.0374,-0.295535 0.0323,-0.422153 0.0334,-0.06439 0.0794,-0.120944 0.13733,-0.166223 0.0579,-0.04529 0.12683,-0.07836 0.20109,-0.09738 0.0743,-0.01901 0.15389,-0.02352 0.23224,-0.01328 0.0793,0.0103 0.15735,0.03504 0.22834,0.07294 z"
       fill="url(#paint39_radial_110_3490)"
       id="path1529"
       style="fill:url(#paint39_radial_110_3490);stroke-width:0.918511" />
    <path
       fill-rule="evenodd"
       clip-rule="evenodd"
       d="m 579.03966,90.417229 c 0.17999,0.09801 0.31689,0.255185 0.38073,0.437099 0.0648,0.18205 0.0502,0.373835 -0.038,0.533713 -0.0431,0.0799 -0.10383,0.149683 -0.17747,0.205498 -0.0737,0.05572 -0.16028,0.09623 -0.25431,0.119304 -0.094,0.02298 -0.19361,0.02807 -0.293,0.01492 -0.0994,-0.01322 -0.1967,-0.04437 -0.2871,-0.09176 -0.0886,-0.04863 -0.16825,-0.112358 -0.23419,-0.187684 -0.065,-0.07519 -0.11519,-0.160433 -0.14662,-0.250836 -0.0314,-0.09031 -0.044,-0.184104 -0.0375,-0.275869 0.007,-0.09177 0.0331,-0.179683 0.0783,-0.25878 0.0872,-0.160634 0.2419,-0.27671 0.43093,-0.322715 0.18999,-0.04596 0.39738,-0.01829 0.57821,0.0771 z"
       fill="#31165f"
       id="path1531"
       style="stroke-width:0.918511" />
    <path
       fill-rule="evenodd"
       clip-rule="evenodd"
       d="m 578.96918,90.54682 c 0.14028,0.08042 0.24734,0.206365 0.29628,0.350912 0.0499,0.144592 0.0384,0.296469 -0.0313,0.423525 -0.0696,0.127062 -0.19302,0.219317 -0.3425,0.257123 -0.14948,0.0378 -0.31471,0.01819 -0.45942,-0.05464 -0.14027,-0.08042 -0.24734,-0.206364 -0.29628,-0.350912 -0.0499,-0.144592 -0.0383,-0.296552 0.0314,-0.423525 0.0696,-0.12715 0.19302,-0.219317 0.34251,-0.257122 0.14947,-0.0378 0.31375,-0.01822 0.45941,0.05464 z"
       fill="url(#paint40_radial_110_3490)"
       id="path1533"
       style="fill:url(#paint40_radial_110_3490);stroke-width:0.918511" />
    <path
       fill-rule="evenodd"
       clip-rule="evenodd"
       d="m 598.71915,94.983725 c 0.0895,0.04831 0.16822,0.111649 0.23413,0.18662 0.066,0.07506 0.11518,0.159989 0.14755,0.250257 0.0314,0.09014 0.0449,0.183794 0.0374,0.275426 -0.007,0.09159 -0.0332,0.179416 -0.0773,0.258469 -0.0873,0.160633 -0.24285,0.276666 -0.43188,0.322672 -0.18904,0.046 -0.39738,0.01829 -0.57821,-0.0771 -0.17904,-0.09797 -0.31594,-0.255142 -0.38074,-0.437099 -0.0639,-0.182005 -0.0502,-0.373836 0.0389,-0.533674 0.0431,-0.07981 0.10288,-0.14955 0.17653,-0.205098 0.0746,-0.0555 0.16125,-0.09592 0.25435,-0.118771 0.094,-0.0228 0.19363,-0.02763 0.29303,-0.01412 0.0994,0.0134 0.19672,0.04482 0.28618,0.09242 z"
       fill="#31165f"
       id="path1535"
       style="stroke-width:0.918511" />
    <path
       fill-rule="evenodd"
       clip-rule="evenodd"
       d="m 598.64771,95.113096 c 0.14123,0.08055 0.24734,0.206364 0.29723,0.350955 0.0489,0.144636 0.0374,0.296514 -0.0322,0.423575 -0.0696,0.127062 -0.19208,0.219271 -0.34156,0.257077 -0.15043,0.03786 -0.31471,0.01827 -0.45941,-0.05455 -0.14123,-0.08055 -0.24734,-0.206364 -0.29724,-0.350956 -0.0489,-0.144546 -0.0384,-0.296557 0.0322,-0.423574 0.0696,-0.127062 0.19208,-0.219272 0.34156,-0.257077 0.14947,-0.0378 0.31471,-0.01827 0.45941,0.05455 z"
       fill="url(#paint41_radial_110_3490)"
       id="path1537"
       style="fill:url(#paint41_radial_110_3490);stroke-width:0.918511" />
    <path
       fill-rule="evenodd"
       clip-rule="evenodd"
       d="m 604.7074,85.997305 c 0.0895,0.04832 0.16918,0.111781 0.23511,0.186841 0.065,0.07502 0.11517,0.160077 0.14754,0.250346 0.0324,0.09027 0.0449,0.183972 0.0384,0.275736 -0.007,0.09185 -0.0323,0.17999 -0.0764,0.25931 -0.0881,0.160415 -0.24382,0.276088 -0.43381,0.321874 -0.19,0.04569 -0.39741,0.01775 -0.57919,-0.07785 -0.17904,-0.09797 -0.31595,-0.255143 -0.38074,-0.4371 -0.0639,-0.181916 -0.0502,-0.373836 0.0389,-0.533673 0.0431,-0.07981 0.10289,-0.149461 0.17748,-0.205055 0.0737,-0.05554 0.1603,-0.09588 0.25435,-0.118682 0.0931,-0.02285 0.19267,-0.02768 0.29208,-0.01426 0.0994,0.0134 0.19672,0.04491 0.28617,0.09251 z"
       fill="#31165f"
       id="path1539"
       style="stroke-width:0.918511" />
    <path
       fill-rule="evenodd"
       clip-rule="evenodd"
       d="m 604.63597,86.126765 c 0.14123,0.08046 0.24734,0.206275 0.29628,0.350823 0.0499,0.14468 0.0383,0.296552 -0.0313,0.423613 -0.0696,0.127062 -0.19209,0.219272 -0.34252,0.257034 -0.14947,0.0378 -0.31375,0.01831 -0.4594,-0.05455 -0.071,-0.03852 -0.134,-0.08917 -0.18598,-0.149235 -0.0511,-0.05994 -0.091,-0.127955 -0.11499,-0.20003 -0.025,-0.07203 -0.0339,-0.146605 -0.0274,-0.219409 0.007,-0.07277 0.03,-0.142257 0.0663,-0.204302 0.0334,-0.06439 0.0794,-0.120943 0.13734,-0.166223 0.0579,-0.04529 0.12684,-0.07836 0.20109,-0.09738 0.0743,-0.01901 0.15389,-0.02352 0.23225,-0.01337 0.0793,0.0103 0.15734,0.03512 0.22833,0.07303 z"
       fill="url(#paint42_radial_110_3490)"
       id="path1541"
       style="fill:url(#paint42_radial_110_3490);stroke-width:0.918511" />
    <path
       d="m 602.23985,77.202581 c 0.18424,-0.335884 0.0317,-0.770412 -0.34179,-0.970682 -0.37347,-0.200272 -0.82585,-0.0904 -1.01009,0.245481 -0.18424,0.335885 -0.0317,0.770501 0.34178,0.970771 0.37347,0.200273 0.82585,0.09032 1.0101,-0.24557 z"
       fill="#31165f"
       id="path1543"
       style="stroke-width:0.918511" />
    <path
       fill-rule="evenodd"
       clip-rule="evenodd"
       d="m 601.83011,76.353898 c 0.14123,0.08055 0.24734,0.206364 0.29723,0.350954 0.0489,0.144636 0.0384,0.296559 -0.0322,0.423576 -0.0696,0.127061 -0.19208,0.21927 -0.34155,0.257077 -0.14947,0.03789 -0.31471,0.01827 -0.45941,-0.05455 -0.14124,-0.08055 -0.24734,-0.206365 -0.29628,-0.350912 -0.0499,-0.144592 -0.0384,-0.296558 0.0312,-0.423531 0.0696,-0.12715 0.19208,-0.21936 0.34155,-0.257166 0.15043,-0.03777 0.31471,-0.01819 0.45942,0.05455 z"
       fill="url(#paint43_radial_110_3490)"
       id="path1545"
       style="fill:url(#paint43_radial_110_3490);stroke-width:0.918511" />
    <path
       fill-rule="evenodd"
       clip-rule="evenodd"
       d="m 589.37031,70.777457 c 0.0895,0.04832 0.16917,0.111691 0.2351,0.186663 0.065,0.07502 0.11517,0.159989 0.14659,0.250214 0.0324,0.09018 0.0449,0.183793 0.0384,0.275381 -0.007,0.09168 -0.0332,0.179506 -0.0773,0.258559 -0.0873,0.160633 -0.24284,0.276666 -0.43187,0.322671 -0.18999,0.04596 -0.39738,0.01829 -0.57821,-0.07719 -0.17903,-0.0977 -0.31591,-0.254342 -0.38068,-0.435679 -0.0638,-0.181382 -0.0511,-0.372809 0.0371,-0.532603 0.0422,-0.0802 0.10285,-0.150348 0.17648,-0.206252 0.0745,-0.05595 0.16027,-0.09659 0.25431,-0.119658 0.094,-0.02307 0.19361,-0.02808 0.29396,-0.01461 0.0994,0.01331 0.19672,0.04482 0.28618,0.09251 z"
       fill="#31165f"
       id="path1547"
       style="stroke-width:0.918511" />
    <path
       fill-rule="evenodd"
       clip-rule="evenodd"
       d="m 589.30331,70.899588 c 0.14124,0.08047 0.24734,0.206364 0.29724,0.350956 0.0489,0.144546 0.0384,0.296469 -0.0322,0.423486 -0.0696,0.127061 -0.19208,0.219359 -0.34157,0.257165 -0.14947,0.0378 -0.3147,0.01818 -0.45941,-0.05464 -0.14122,-0.08047 -0.24734,-0.206364 -0.29723,-0.350955 -0.0489,-0.144547 -0.0374,-0.296513 0.0322,-0.423486 0.0696,-0.127061 0.19208,-0.21936 0.34155,-0.257166 0.15043,-0.03777 0.31471,-0.01819 0.45941,0.05464 z"
       fill="url(#paint44_radial_110_3490)"
       id="path1549"
       style="fill:url(#paint44_radial_110_3490);stroke-width:0.918511" />
    <path
       fill-rule="evenodd"
       clip-rule="evenodd"
       d="m 580.55422,72.25526 c 0.0885,0.04819 0.16822,0.111648 0.23414,0.186619 0.065,0.07493 0.11517,0.159989 0.14753,0.250168 0.0314,0.09022 0.0439,0.183838 0.0374,0.275426 -0.007,0.09168 -0.0332,0.179505 -0.0773,0.258559 -0.0872,0.160632 -0.24285,0.276577 -0.43188,0.322671 -0.18904,0.046 -0.39739,0.0182 -0.57821,-0.07719 -0.17999,-0.09801 -0.31689,-0.255185 -0.38074,-0.4371 -0.0639,-0.181915 -0.0502,-0.373835 0.0389,-0.533585 0.0422,-0.07984 0.10289,-0.14955 0.17653,-0.205097 0.0746,-0.05559 0.1603,-0.09597 0.25435,-0.118771 0.094,-0.0228 0.19363,-0.02763 0.29302,-0.01421 0.0994,0.01349 0.19577,0.04486 0.28619,0.09251 z"
       fill="#31165f"
       id="path1551"
       style="stroke-width:0.918511" />
    <path
       fill-rule="evenodd"
       clip-rule="evenodd"
       d="m 580.48278,72.384631 c 0.14123,0.08047 0.24734,0.206363 0.29723,0.350955 0.0489,0.144546 0.0374,0.296512 -0.0322,0.423485 -0.0696,0.127062 -0.19208,0.21936 -0.34156,0.257167 -0.14948,0.0378 -0.31471,0.01818 -0.45942,-0.05464 -0.14122,-0.08046 -0.24733,-0.206275 -0.29722,-0.350954 -0.0489,-0.144547 -0.0374,-0.296425 0.0322,-0.423486 0.0696,-0.127062 0.19208,-0.219272 0.34155,-0.257167 0.15043,-0.03777 0.31472,-0.01818 0.45942,0.05464 z"
       fill="url(#paint45_radial_110_3490)"
       id="path1553"
       style="fill:url(#paint45_radial_110_3490);stroke-width:0.918511" />
    <path
       fill-rule="evenodd"
       clip-rule="evenodd"
       d="m 575.15372,79.808544 c 0.17999,0.09801 0.31594,0.255143 0.38073,0.4371 0.0639,0.181916 0.0502,0.373836 -0.0389,0.533585 -0.0422,0.07984 -0.10289,0.149549 -0.17653,0.205186 -0.0746,0.0555 -0.1603,0.09588 -0.25435,0.118684 -0.094,0.0228 -0.19362,0.02763 -0.29302,0.01421 -0.0994,-0.0134 -0.19672,-0.04491 -0.28618,-0.09251 -0.0885,-0.04827 -0.16918,-0.111781 -0.23416,-0.186798 -0.066,-0.07497 -0.11613,-0.16012 -0.14849,-0.250389 -0.0314,-0.09023 -0.0449,-0.183972 -0.0384,-0.275826 0.007,-0.09177 0.0323,-0.1799 0.0764,-0.25922 0.0881,-0.160415 0.24382,-0.276178 0.43381,-0.321874 0.19,-0.04569 0.39836,-0.01772 0.57919,0.07785 z"
       fill="#31165f"
       id="path1555"
       style="stroke-width:0.918511" />
    <path
       fill-rule="evenodd"
       clip-rule="evenodd"
       d="m 575.08227,79.937916 c 0.071,0.03852 0.13496,0.0893 0.18694,0.149278 0.0511,0.05994 0.091,0.127956 0.11498,0.200031 0.025,0.07203 0.0339,0.146604 0.0264,0.219363 -0.006,0.07281 -0.029,0.142302 -0.0663,0.204302 -0.0324,0.06444 -0.0784,0.120988 -0.13638,0.166268 -0.0589,0.04524 -0.12683,0.07836 -0.20109,0.09738 -0.0743,0.01901 -0.15389,0.02352 -0.2332,0.01332 -0.0784,-0.01025 -0.15639,-0.03508 -0.22739,-0.07289 -0.14122,-0.08055 -0.24733,-0.206363 -0.29723,-0.351043 -0.0489,-0.144547 -0.0374,-0.296424 0.0322,-0.423486 0.0696,-0.127062 0.19208,-0.219271 0.34155,-0.257077 0.15043,-0.03786 0.31471,-0.01828 0.45941,0.05455 z"
       fill="url(#paint46_radial_110_3490)"
       id="path1557"
       style="fill:url(#paint46_radial_110_3490);stroke-width:0.918511" />
    <path
       fill-rule="evenodd"
       clip-rule="evenodd"
       d="m 650.68875,133.62398 0.24602,-0.44683 -18.42041,-9.30112 -0.22477,0.45489 z"
       fill="#6f2561"
       id="path1559"
       style="stroke-width:0.918511" />
    <path
       fill-rule="evenodd"
       clip-rule="evenodd"
       d="m 646.69721,98.097688 -0.26366,0.43423 18.00774,10.050792 0.16665,-0.30284 z"
       fill="#6f2561"
       id="path1561"
       style="stroke-width:0.918511" />
    <path
       fill-rule="evenodd"
       clip-rule="evenodd"
       d="m 631.4858,101.35309 0.87987,-1.602191 27.6446,16.901381 -0.61269,1.11672 z"
       fill="url(#paint47_linear_110_3490)"
       id="path1563"
       style="fill:url(#paint47_linear_110_3490);stroke-width:0.918511" />
    <path
       fill-rule="evenodd"
       clip-rule="evenodd"
       d="m 631.4858,101.35309 5.70024,4.50207 22.21154,11.91384 z"
       fill="#ff4c61"
       id="path1565"
       style="stroke-width:0.918511" />
    <path
       opacity="0.5"
       fill-rule="evenodd"
       clip-rule="evenodd"
       d="m 633.21554,100.26994 20.90297,6.1336 -2.36371,3.74688 4.50188,2.4781 -0.71057,1.29441 z"
       fill="#31165f"
       id="path1567"
       style="stroke-width:0.918511" />
    <path
       d="m 573.16299,93.190095 c 0,0 -2.04993,-0.893743 -2.64433,-2.660893 l 0.54945,-0.884548 c 0.83693,0.994354 1.62028,2.024531 2.34702,3.086316 z"
       fill="#ffffff"
       id="path1569"
       style="stroke-width:0.918511" />
    <g
       style="mix-blend-mode:soft-light"
       id="g1573"
       transform="matrix(0.95213169,0.04364649,0.03795938,0.88781752,49.132878,-0.45655268)">
      <path
         d="m 609.205,69.8382 -7.679,-6.6351 0.29,-0.5397 7.733,6.5361 z"
         fill="#ffffff"
         id="path1571" />
    </g>
    <path
       fill-rule="evenodd"
       clip-rule="evenodd"
       d="m 594.93181,65.833695 c 0,0 0.90362,-3.180089 3.46363,0.864891 z"
       fill="url(#paint48_linear_110_3490)"
       id="path1575"
       style="fill:url(#paint48_linear_110_3490);stroke-width:0.918511" />
    <path
       fill-rule="evenodd"
       clip-rule="evenodd"
       d="m 576.40447,98.571596 c 0,0 -0.57584,3.089844 2.50167,2.324994 z"
       fill="url(#paint49_linear_110_3490)"
       id="path1577"
       style="fill:url(#paint49_linear_110_3490);stroke-width:0.918511" />
    <g
       style="mix-blend-mode:soft-light"
       opacity="0.5"
       id="g1581"
       transform="matrix(0.95213169,0.04364649,0.03795938,0.88781752,49.132878,-0.45655268)">
      <path
         fill-rule="evenodd"
         clip-rule="evenodd"
         d="m 621.121,108.446 c 0,0 -30.394,-5.459 -51.464,-12.535 l -0.041,1.0426 c 0,0 31.745,11.9664 50.317,14.3694 z"
         fill="#ffffff"
         id="path1579" />
    </g>
    <g
       style="mix-blend-mode:soft-light"
       id="g1585"
       transform="matrix(0.95213169,0.04364649,0.03795938,0.88781752,49.132878,-0.45655268)">
      <path
         fill-rule="evenodd"
         clip-rule="evenodd"
         d="m 599.705,61.8398 -4.853,-3.8701 0.277,-0.5143 4.853,3.8701 z"
         fill="#ffffff"
         id="path1583" />
    </g>
    <g
       style="mix-blend-mode:soft-light"
       id="g1589"
       transform="matrix(0.95213169,0.04364649,0.03795938,0.88781752,49.132878,-0.45655268)">
      <path
         fill-rule="evenodd"
         clip-rule="evenodd"
         d="m 590.069,100.65 c 0,0 0.546,-6.938 2.911,-12.5497 0,0 -1.688,5.951 -2.911,12.5497 z"
         fill="#ffffff"
         id="path1587" />
    </g>
    <g
       style="mix-blend-mode:soft-light"
       id="g1593"
       transform="matrix(0.95213169,0.04364649,0.03795938,0.88781752,49.132878,-0.45655268)">
      <path
         fill-rule="evenodd"
         clip-rule="evenodd"
         d="m 583.615,76.8911 19.892,10.5383 c 0,0 -6.997,-4.2193 -19.892,-10.5383 z"
         fill="#ffffff"
         id="path1591" />
    </g>
    <g
       style="mix-blend-mode:soft-light"
       id="g1597"
       transform="matrix(0.95213169,0.04364649,0.03795938,0.88781752,49.132878,-0.45655268)">
      <path
         fill-rule="evenodd"
         clip-rule="evenodd"
         d="m 599.4,102.328 c 0,0 3.312,-15.4396 12.686,-26.9003 0.014,0.0076 -7.403,8.2393 -12.686,26.9003 z"
         fill="#ffffff"
         id="path1595" />
    </g>
    <path
       fill-rule="evenodd"
       clip-rule="evenodd"
       d="m 574.52255,86.827383 c 0,0 1.56718,-1.195605 -1.19164,-3.867506 0.23014,1.315653 0.63062,2.614483 1.19164,3.867506 z"
       fill="#ffffff"
       id="path1599"
       style="stroke-width:0.918511" />
    <g
       style="mix-blend-mode:soft-light"
       id="g1603"
       transform="matrix(0.95213169,0.04364649,0.03795938,0.88781752,49.132878,-0.45655268)">
      <path
         fill-rule="evenodd"
         clip-rule="evenodd"
         d="m 581.257,73.8245 c 0,0 2.126,-4.4904 0.227,-12.1826 -0.014,-0.0076 2.586,5.394 -0.227,12.1826 z"
         fill="#ffffff"
         id="path1601" />
    </g>
    <g
       style="mix-blend-mode:soft-light"
       id="g1607"
       transform="matrix(0.95213169,0.04364649,0.03795938,0.88781752,44.666843,-2.7762617)">
      <g
         id="g2573">
        <path
           fill-rule="evenodd"
           clip-rule="evenodd"
           d="m 576.569,73.4327 c 0,0 4.08,-2.7239 1.763,-7.3358 0.008,0.0045 0.706,2.9937 -1.763,7.3358 z"
           fill="#ffffff"
           id="path1605" />
      </g>
    </g>
    <g
       style="mix-blend-mode:soft-light"
       opacity="0.36"
       id="g1717"
       transform="matrix(0.95213169,0.04364649,0.03795938,0.88781752,49.132878,-0.45655268)">
      <g
         style="mix-blend-mode:soft-light"
         opacity="0.36"
         id="g1611">
        <path
           fill-rule="evenodd"
           clip-rule="evenodd"
           d="m 584.657,78.7462 c 0.031,0.3082 0.009,0.8574 0.39,0.9681 0.179,0.0303 0.359,0.0506 0.54,0.0608 0.158,0.0305 0.312,0.077 0.461,0.1389 0.244,0.1012 0.511,0.1303 0.771,0.0836 0.167,-0.0452 0.116,-0.2147 0.042,-0.3419 -0.062,-0.1453 -0.161,-0.2717 -0.287,-0.3662 -0.179,-0.099 -0.347,-0.2162 -0.501,-0.3497 -0.059,-0.0535 -0.092,-0.1407 -0.156,-0.1972 -0.089,-0.0611 -0.183,-0.1121 -0.283,-0.1521 -0.158,-0.0801 -0.338,-0.1082 -0.513,-0.0803 -0.176,0.028 -0.338,0.1105 -0.464,0.236 z"
           fill="#ffffff"
           id="path1609" />
      </g>
      <g
         style="mix-blend-mode:soft-light"
         opacity="0.36"
         id="g1615">
        <path
           fill-rule="evenodd"
           clip-rule="evenodd"
           d="m 586.999,81.195 c -0.048,-0.0056 -0.093,-0.0253 -0.129,-0.0566 -0.037,-0.0313 -0.063,-0.0728 -0.076,-0.1191 0.183,-0.3391 0.914,-0.0987 0.87,0.2862 -0.048,0.448 -0.569,0.2255 -0.726,-0.0047 z"
           fill="#ffffff"
           id="path1613" />
      </g>
      <g
         style="mix-blend-mode:soft-light"
         opacity="0.36"
         id="g1619">
        <path
           fill-rule="evenodd"
           clip-rule="evenodd"
           d="m 587.874,89.6962 c 0.01,-0.2208 -0.027,-0.4302 0.123,-0.6008 0.126,-0.1395 0.294,-0.2346 0.478,-0.2713 0.227,-0.0349 0.46,-0.0205 0.681,0.0422 0.111,0.004 0.218,0.0402 0.308,0.1041 0.337,0.316 0.366,0.9257 0.289,1.3398 -0.032,0.2416 -0.091,0.4788 -0.177,0.7068 -0.08,0.1498 -0.127,0.3178 -0.181,0.4785 -0.025,0.139 -0.079,0.2713 -0.158,0.3886 -0.094,0.0814 -0.199,0.1475 -0.313,0.1959 -0.147,0.0741 -0.309,0.1111 -0.473,0.1079 -0.164,-0.0032 -0.325,-0.0466 -0.469,-0.1263 -0.501,-0.2952 -0.577,-1.1347 -0.56,-1.6683 0.018,-0.4317 0.101,-1.094 0.452,-0.6971 z"
           fill="#ffffff"
           id="path1617" />
      </g>
      <g
         style="mix-blend-mode:soft-light"
         opacity="0.36"
         id="g1623">
        <path
           fill-rule="evenodd"
           clip-rule="evenodd"
           d="m 588.052,87.6999 c 0.119,0.1257 0.141,0.1924 0.298,0.1239 0.05,-0.0318 0.092,-0.0739 0.124,-0.1235 0.031,-0.0496 0.052,-0.1055 0.06,-0.1639 0.038,-0.2128 -0.11,-0.5877 -0.362,-0.5594 -0.127,0.0191 -0.38,0.0904 -0.467,0.1897 -0.054,0.1308 -0.061,0.2766 -0.018,0.4116 0.043,0.1351 0.132,0.2507 0.252,0.3264 z"
           fill="#ffffff"
           id="path1621" />
      </g>
      <g
         style="mix-blend-mode:soft-light"
         opacity="0.36"
         id="g1627">
        <path
           fill-rule="evenodd"
           clip-rule="evenodd"
           d="m 596.699,83.6222 c 0.064,0.0642 0.138,0.1166 0.22,0.1545 0.198,0.1065 0.395,0.213 0.596,0.321 0.373,0.2009 0.718,0.4597 1.1,0.6651 0.276,0.14 0.563,0.2567 0.858,0.349 0.151,0.0551 0.304,0.1024 0.46,0.1417 0.016,-0.031 -0.057,-0.0778 -0.08,-0.1086 -0.079,-0.1044 -0.18,-0.195 -0.25,-0.3019 -0.156,-0.2446 -0.324,-0.4952 -0.498,-0.7273 -0.039,-0.0385 -0.073,-0.0814 -0.102,-0.128 -0.028,-0.0626 -0.044,-0.1407 -0.068,-0.2046 -0.043,-0.1212 -0.105,-0.2346 -0.184,-0.3358 -0.201,-0.2183 -0.447,-0.3896 -0.722,-0.5014 -0.087,-0.0472 -0.183,-0.0659 -0.269,-0.1087 -0.094,-0.051 -0.192,-0.0962 -0.292,-0.1352 -0.216,-0.0666 -0.444,-0.09 -0.67,-0.069 -0.26,0.0093 -0.679,-0.045 -0.875,0.1845 -0.096,0.1092 0.017,0.2317 0.108,0.3063 0.091,0.0745 0.245,0.161 0.364,0.2508 0.12,0.0898 0.341,0.2889 0.304,0.2476 z"
           fill="#ffffff"
           id="path1625" />
      </g>
      <g
         style="mix-blend-mode:soft-light"
         opacity="0.36"
         id="g1631">
        <path
           fill-rule="evenodd"
           clip-rule="evenodd"
           d="m 595.079,82.4001 c -0.063,-0.1068 -0.211,-0.285 -0.085,-0.4104 0.126,-0.1255 0.306,-0.0209 0.409,0.0526 0.239,0.1795 -0.202,0.3758 -0.371,0.2558 z"
           fill="#ffffff"
           id="path1629" />
      </g>
      <g
         style="mix-blend-mode:soft-light"
         opacity="0.36"
         id="g1635">
        <path
           fill-rule="evenodd"
           clip-rule="evenodd"
           d="m 598.097,80.7079 c 0.06,0.1062 0.154,0.1891 0.267,0.2349 0.078,0.026 0.164,0.0209 0.238,-0.0143 0.075,-0.0351 0.133,-0.0977 0.163,-0.1746 0.129,-0.2402 0.168,-0.4343 -0.038,-0.6071 -0.086,-0.0532 -0.182,-0.0875 -0.283,-0.1007 -0.1,-0.0132 -0.202,-0.0049 -0.299,0.0242 -0.077,0.0301 -0.142,0.0846 -0.186,0.1552 -0.079,0.147 -0.015,0.2724 0.063,0.3982 z"
           fill="#ffffff"
           id="path1633" />
      </g>
      <g
         style="mix-blend-mode:soft-light"
         opacity="0.36"
         id="g1639">
        <path
           fill-rule="evenodd"
           clip-rule="evenodd"
           d="m 608.478,79.3132 c 0.014,-0.4558 0.083,-0.9083 0.204,-1.3479 0.144,-0.3701 0.308,-0.7319 0.493,-1.0835 0.183,-0.5178 0.329,-1.0479 0.438,-1.5864 0.098,-0.4727 0.31,-0.9141 0.619,-1.285 0.128,-0.1494 0.285,-0.2712 0.461,-0.358 0.177,-0.0867 0.369,-0.1366 0.565,-0.1466 0.238,0.0095 0.473,0.0593 0.694,0.1473 0.099,0.0533 0.2,0.0822 0.299,0.1211 0.065,0.0147 0.128,0.0364 0.188,0.0646 0.093,0.0502 0.072,0.0897 0.024,0.1773 -0.072,0.1591 -0.192,0.2919 -0.343,0.3802 -0.251,0.1699 -0.47,0.3824 -0.648,0.628 -0.182,0.23 -0.372,0.441 -0.539,0.683 l -0.498,0.7014 c -0.146,0.1981 -0.299,0.393 -0.444,0.5954 -0.146,0.2024 -0.263,0.4128 -0.392,0.6199 -0.13,0.2072 -0.192,0.3561 -0.288,0.5341 -0.061,0.113 -0.138,0.2098 -0.199,0.3228 -0.047,0.0873 -0.1,0.1707 -0.16,0.2493 -0.049,0.0815 -0.094,0.1654 -0.135,0.2515 -0.101,0.1228 -0.214,0.234 -0.339,0.3315 z"
           fill="#ffffff"
           id="path1637" />
      </g>
      <g
         style="mix-blend-mode:soft-light"
         opacity="0.36"
         id="g1643">
        <path
           fill-rule="evenodd"
           clip-rule="evenodd"
           d="m 608.165,76.1778 c 0.016,0.0781 0.016,0.1728 0.076,0.2235 0.034,0.0253 0.071,0.0453 0.11,0.0593 0.178,0.0485 0.331,-0.2154 0.401,-0.3454 0.219,-0.3727 0.289,-0.8142 0.196,-1.2361 -0.034,-0.1439 -0.101,-0.2779 -0.195,-0.3918 -0.094,-0.1139 -0.213,-0.2046 -0.348,-0.2651 -0.372,-0.1089 -0.753,0.1524 -0.991,0.4252 -0.238,0.2728 -0.456,0.6582 -0.352,1.006 0.029,0.1226 0.099,0.2318 0.197,0.3104 0.091,0.0434 0.183,0.0813 0.278,0.1132 0.119,0.0639 0.187,0.1808 0.337,0.1811 0.103,0.0049 0.205,-0.0232 0.291,-0.0803 z"
           fill="#ffffff"
           id="path1641" />
      </g>
      <g
         style="mix-blend-mode:soft-light"
         opacity="0.36"
         id="g1647">
        <path
           fill-rule="evenodd"
           clip-rule="evenodd"
           d="m 609.357,74.0241 c -0.039,-0.0041 -0.075,-0.0205 -0.104,-0.0466 -0.03,-0.0261 -0.05,-0.0608 -0.058,-0.099 -0.023,-0.0374 -0.033,-0.0814 -0.028,-0.125 0.005,-0.0436 0.025,-0.0842 0.055,-0.1154 0.026,-0.0287 0.058,-0.0516 0.093,-0.067 0.036,-0.0153 0.074,-0.0229 0.113,-0.0221 0.039,7e-4 0.077,0.0098 0.112,0.0266 0.034,0.0167 0.065,0.0408 0.09,0.0705 0.027,0.0464 0.042,0.0988 0.044,0.1526 0.002,0.0537 -0.01,0.107 -0.035,0.155 -0.025,0.052 -0.066,0.094 -0.118,0.119 -0.052,0.0251 -0.111,0.0317 -0.167,0.0188 z"
           fill="#ffffff"
           id="path1645" />
      </g>
      <g
         style="mix-blend-mode:soft-light"
         opacity="0.36"
         id="g1651">
        <path
           fill-rule="evenodd"
           clip-rule="evenodd"
           d="m 603.099,67.0573 c -0.03,0.1376 -0.006,0.2816 0.069,0.4013 0.013,0.0354 0.037,0.0662 0.067,0.0886 0.031,0.0223 0.068,0.0352 0.105,0.0372 0.256,-0.0027 0.501,-0.0966 0.693,-0.2648 0.062,-0.0585 0.112,-0.1287 0.146,-0.2066 0.035,-0.0778 0.053,-0.1617 0.055,-0.2468 -0.021,-0.1508 -0.065,-0.2975 -0.131,-0.4347 -0.046,-0.1235 -0.1,-0.24 -0.168,-0.3641 -0.03,-0.1055 -0.093,-0.1986 -0.179,-0.2656 -0.087,-0.067 -0.193,-0.1043 -0.302,-0.1065 -0.119,0.0119 -0.233,0.0527 -0.332,0.1187 -0.099,0.0661 -0.18,0.1556 -0.237,0.2604 -0.063,0.1494 -0.089,0.3115 -0.076,0.473 0.011,0.1698 -0.008,0.3128 0.29,0.5099 z"
           fill="#ffffff"
           id="path1649" />
      </g>
      <g
         style="mix-blend-mode:soft-light"
         opacity="0.36"
         id="g1655">
        <path
           fill-rule="evenodd"
           clip-rule="evenodd"
           d="m 603.508,68.2212 c 0.066,-0.1037 0.152,-0.1937 0.252,-0.2652 0.048,0.0259 0.105,-0.0198 0.15,0.0333 0.044,0.053 -0.032,0.1943 -0.068,0.2549 -0.047,0.0803 -0.122,0.1401 -0.211,0.1674 -0.033,0.0076 -0.172,0.0494 -0.143,-0.0258 z"
           fill="#ffffff"
           id="path1653" />
      </g>
      <g
         style="mix-blend-mode:soft-light"
         opacity="0.36"
         id="g1659">
        <path
           fill-rule="evenodd"
           clip-rule="evenodd"
           d="m 604.507,81.3671 c 0.085,0.1332 0.18,0.2825 0.381,0.234 0.084,-0.0369 0.156,-0.0982 0.205,-0.1759 0.05,-0.0778 0.075,-0.1685 0.073,-0.2608 0.009,-0.0902 0.016,-0.1919 -0.06,-0.2473 -0.075,-0.0554 -0.172,-0.0928 -0.257,-0.1385 -0.2,-0.108 -0.232,-0.3947 -0.523,-0.3145 -0.069,0.022 -0.132,0.0587 -0.185,0.1074 -0.053,0.0487 -0.096,0.1083 -0.124,0.1748 -0.071,0.2276 0.085,0.4462 0.219,0.6097 z"
           fill="#ffffff"
           id="path1657" />
      </g>
      <g
         style="mix-blend-mode:soft-light"
         opacity="0.36"
         id="g1663">
        <path
           fill-rule="evenodd"
           clip-rule="evenodd"
           d="m 603.087,101.761 c -0.073,0.257 -0.072,0.528 10e-4,0.784 l 0.088,0.048 c 0.055,0.073 0.126,0.133 0.207,0.177 0.081,0.043 0.17,0.069 0.262,0.075 0.584,0.005 0.789,-0.504 1.022,-0.944 0.233,-0.439 0.625,-1.038 -0.134,-1.166 -0.336,-0.053 -0.898,-0.18 -1.229,-0.005 -0.178,0.093 -0.17,0.193 -0.195,0.361 -0.059,0.231 -0.073,0.471 -0.041,0.707 z"
           fill="#ffffff"
           id="path1661" />
      </g>
      <g
         style="mix-blend-mode:soft-light"
         opacity="0.36"
         id="g1667">
        <path
           fill-rule="evenodd"
           clip-rule="evenodd"
           d="m 606.699,96.7804 c -0.085,-0.1404 -0.272,-0.3758 -0.193,-0.5702 0.079,-0.1943 0.179,-0.1625 0.313,-0.2288 0.294,-0.1476 0.637,-0.255 0.81,0.1408 0.034,0.1059 0.043,0.2182 0.027,0.3283 -0.016,0.11 -0.058,0.2149 -0.121,0.3064 -0.112,0.1402 -0.44,0.3026 -0.593,0.1543 z"
           fill="#ffffff"
           id="path1665" />
      </g>
      <g
         style="mix-blend-mode:soft-light"
         opacity="0.36"
         id="g1671">
        <path
           fill-rule="evenodd"
           clip-rule="evenodd"
           d="m 578.305,52.5927 c 0.26,0.3626 0.272,0.3874 0.682,0.4801 0.306,0.1075 0.634,0.1377 0.955,0.0878 0.435,-0.1304 0.551,-0.5232 0.807,-0.8227 0.099,-0.0851 0.174,-0.1948 0.218,-0.318 0.043,-0.1232 0.053,-0.2556 0.029,-0.3839 -0.064,-0.3368 -0.19,-0.6589 -0.37,-0.9503 -0.314,-0.4447 -0.722,-0.8149 -1.195,-1.0846 -0.472,-0.2696 -0.999,-0.432 -1.541,-0.4757 -0.663,-0.0474 -1.47,-0.0187 -1.97,0.5033 -0.215,0.2134 -0.368,0.4809 -0.444,0.7742 -0.076,0.2934 -0.071,0.6018 0.014,0.8927 0.108,0.2812 0.282,0.5322 0.507,0.7322 0.225,0.1999 0.495,0.3429 0.787,0.417 l 0.417,0.093 c 0.165,0.069 0.323,0.1541 0.472,0.2541 0.18,0.0643 0.382,0.0488 0.632,-0.1992 z"
           fill="#ffffff"
           id="path1669" />
      </g>
      <g
         style="mix-blend-mode:soft-light"
         opacity="0.36"
         id="g1675">
        <path
           fill-rule="evenodd"
           clip-rule="evenodd"
           d="m 579.145,54.3025 c 0.467,-0.1897 0.375,-0.1623 0.749,-0.0376 0.162,0.058 0.227,0.0126 0.35,0.1226 0.076,0.0893 0.123,0.1994 0.136,0.3161 0.013,0.1167 -0.01,0.2344 -0.066,0.3379 -0.077,0.1441 -0.48,0.2152 -0.618,0.2139 -0.085,0.0033 -0.169,-0.0186 -0.242,-0.063 -0.072,-0.0443 -0.13,-0.1091 -0.167,-0.1863 z"
           fill="#ffffff"
           id="path1673" />
      </g>
      <g
         style="mix-blend-mode:soft-light"
         opacity="0.36"
         id="g1679">
        <path
           fill-rule="evenodd"
           clip-rule="evenodd"
           d="m 560.655,88.4548 c 0.245,0.2228 0.548,0.5134 0.933,0.2982 0.256,-0.1502 0.304,-0.5652 0.26,-0.8408 -0.116,-0.4725 -0.38,-0.8955 -0.754,-1.2074 -0.345,-0.2517 -0.984,-0.0126 -1.212,0.3093 -0.464,0.658 0.435,1.6229 0.923,1.955 z"
           fill="#ffffff"
           id="path1677" />
      </g>
      <g
         style="mix-blend-mode:soft-light"
         opacity="0.36"
         id="g1683">
        <path
           fill-rule="evenodd"
           clip-rule="evenodd"
           d="m 563.604,90.6691 c -0.104,-0.0046 -0.432,0.0372 -0.519,-0.0458 -0.048,-0.0259 -0.018,-0.1011 -0.046,-0.145 -0.05,-0.0722 -0.085,-0.1544 -0.101,-0.2411 -0.016,-0.0867 -0.014,-0.1759 0.007,-0.2615 0.049,-0.1736 0.153,-0.3264 0.297,-0.4347 0.144,-0.1083 0.32,-0.1661 0.5,-0.1644 0.117,-0.0163 0.237,0.0108 0.336,0.0762 0.099,0.0653 0.17,0.1645 0.202,0.279 0.042,0.1532 0.026,0.3167 -0.045,0.4588 -0.071,0.1422 -0.193,0.2529 -0.341,0.3107 z"
           fill="#ffffff"
           id="path1681" />
      </g>
      <g
         style="mix-blend-mode:soft-light"
         opacity="0.36"
         id="g1687">
        <path
           fill-rule="evenodd"
           clip-rule="evenodd"
           d="m 617.6,79.6136 c 0.388,0.4744 0.921,0.8087 1.517,0.952 0.379,0.1163 0.854,0.3101 1.206,0.0221 0.823,-0.6758 -0.66,-2.3346 -1.162,-2.8122 -0.434,-0.418 -0.951,-0.7399 -1.517,-0.9448 -0.339,-0.1093 -1.083,-0.1964 -1.405,0.0236 -0.415,0.2832 -0.412,0.8721 -0.228,1.2624 0.402,0.9455 1.396,1.28 2.06,1.9692 z"
           fill="#ffffff"
           id="path1685" />
      </g>
      <g
         style="mix-blend-mode:soft-light"
         opacity="0.36"
         id="g1691">
        <path
           fill-rule="evenodd"
           clip-rule="evenodd"
           d="m 617.238,79.9946 c -0.099,0.2211 -0.166,0.4549 -0.199,0.6947 0.01,0.1296 0.024,0.3339 0.13,0.4348 0.075,0.0489 0.161,0.0781 0.251,0.0848 0.089,0.0067 0.179,-0.0092 0.26,-0.0464 0.062,-0.0176 0.118,-0.0502 0.164,-0.095 0.046,-0.0447 0.079,-0.1002 0.098,-0.1613 0.012,-0.0958 -0.063,-0.2202 -0.103,-0.3032 -0.075,-0.1522 -0.168,-0.2952 -0.277,-0.4262 -0.043,-0.0689 -0.095,-0.1321 -0.153,-0.1885 -0.101,-0.0834 -0.182,-0.0284 -0.285,-0.0473 z"
           fill="#ffffff"
           id="path1689" />
      </g>
      <g
         style="mix-blend-mode:soft-light"
         opacity="0.36"
         id="g1695">
        <path
           fill-rule="evenodd"
           clip-rule="evenodd"
           d="m 621.47,82.9041 0.288,-0.2096 c 0.102,0.0807 0.255,0.1083 0.269,0.258 -0.014,0.1425 -0.076,0.2761 -0.175,0.3795 -0.05,0.0511 -0.116,0.084 -0.187,0.0933 -0.071,0.0093 -0.143,-0.0055 -0.205,-0.0419 -0.153,-0.0822 -0.137,-0.2598 -0.088,-0.4119 z"
           fill="#ffffff"
           id="path1693" />
      </g>
      <g
         style="mix-blend-mode:soft-light"
         opacity="0.36"
         id="g1699">
        <path
           fill-rule="evenodd"
           clip-rule="evenodd"
           d="m 620.273,99.6494 c 0.041,0.0626 0.102,0.1101 0.172,0.1355 0.07,0.0255 0.147,0.0274 0.219,0.0056 0.122,-0.0285 0.229,-0.1022 0.3,-0.2063 0.07,-0.1042 0.098,-0.2311 0.079,-0.3552 -0.058,-0.3593 -0.347,-0.8792 -0.726,-0.9883 -0.236,-0.0689 -0.635,0.077 -0.625,0.363 0,0.1611 0.018,0.3217 0.056,0.4784 0.097,0.2307 0.268,0.4227 0.486,0.546 z"
           fill="#ffffff"
           id="path1697" />
      </g>
      <g
         style="mix-blend-mode:soft-light"
         opacity="0.36"
         id="g1703">
        <path
           fill-rule="evenodd"
           clip-rule="evenodd"
           d="m 555.187,50.7274 c 0.04,0.1491 0.042,0.2195 0.156,0.3134 0.118,0.1166 0.277,0.1827 0.444,0.1843 0.388,-0.0856 0.736,-0.3028 0.983,-0.6149 0.1,-0.1027 0.175,-0.2272 0.219,-0.3636 0.043,-0.1365 0.055,-0.2812 0.033,-0.4229 -0.013,-0.1657 -0.062,-0.3266 -0.143,-0.4719 -0.081,-0.1453 -0.192,-0.2717 -0.325,-0.3707 -0.122,-0.1115 -0.277,-0.1818 -0.441,-0.2009 -0.164,-0.0192 -0.33,0.0138 -0.475,0.0942 -0.308,0.143 -0.584,0.3483 -0.809,0.603 -0.081,0.1017 -0.136,0.2209 -0.161,0.3479 -0.025,0.127 -0.02,0.2582 0.015,0.3829 0.051,0.2499 0.19,0.6159 0.504,0.5192 z"
           fill="#ffffff"
           id="path1701" />
      </g>
      <g
         style="mix-blend-mode:soft-light"
         opacity="0.36"
         id="g1707">
        <path
           fill-rule="evenodd"
           clip-rule="evenodd"
           d="m 557.415,48.9927 c -0.085,-0.0457 -0.184,-0.0989 -0.162,-0.193 0.038,-0.0773 0.092,-0.1461 0.158,-0.2021 0.066,-0.056 0.142,-0.0981 0.225,-0.1238 0.13,-0.0299 0.266,-0.011 0.383,0.0533 0.064,0.0654 0.102,0.1518 0.106,0.243 0.014,0.0661 0.007,0.135 -0.02,0.1968 -0.028,0.0619 -0.074,0.1135 -0.132,0.1475 -0.084,0.0463 -0.273,0.1741 -0.362,0.0895 z"
           fill="#ffffff"
           id="path1705" />
      </g>
      <g
         style="mix-blend-mode:soft-light"
         opacity="0.36"
         id="g1711">
        <path
           fill-rule="evenodd"
           clip-rule="evenodd"
           d="m 543.041,50.2091 c 0.116,0.0846 0.258,0.125 0.401,0.1141 0.261,-0.019 0.514,-0.0973 0.739,-0.229 0.307,-0.1547 0.556,-0.4038 0.711,-0.7108 0.035,-0.1231 0.034,-0.2539 -0.003,-0.3764 -0.038,-0.1224 -0.11,-0.2314 -0.209,-0.3135 -0.257,-0.1739 -0.568,-0.251 -0.878,-0.2175 -0.276,0.0378 -0.54,0.1412 -0.768,0.3017 -0.229,0.1605 -0.415,0.3733 -0.545,0.6206 -0.248,0.5769 0.558,1.0364 0.552,0.8108 z"
           fill="#ffffff"
           id="path1709" />
      </g>
      <g
         style="mix-blend-mode:soft-light"
         opacity="0.36"
         id="g1715">
        <path
           fill-rule="evenodd"
           clip-rule="evenodd"
           d="m 546.254,48.8518 c -0.085,0.0303 -0.177,0.0365 -0.265,0.0178 0.007,-0.1017 -0.067,-0.1743 -0.053,-0.2801 0.025,-0.103 0.089,-0.1923 0.178,-0.2502 0.055,-0.0403 0.12,-0.0652 0.188,-0.0722 0.068,-0.007 0.136,0.0041 0.198,0.0322 0.141,0.076 0.147,0.1408 0.144,0.2886 -0.003,0.1478 0.007,0.1352 -0.105,0.195 -0.068,0.0431 -0.14,0.0789 -0.215,0.1069 z"
           fill="#ffffff"
           id="path1713" />
      </g>
    </g>
    <path
       fill-rule="evenodd"
       clip-rule="evenodd"
       d="m 623.74709,115.24957 c 0.43086,0.23152 0.65867,0.64778 0.50438,0.92869 -0.15429,0.2809 -0.63063,0.31931 -1.06244,0.0877 -0.43183,-0.23157 -0.65574,-0.64588 -0.50147,-0.92679 0.15429,-0.2809 0.62774,-0.32033 1.05953,-0.0897 z"
       fill="url(#paint50_linear_110_3490)"
       id="path1719"
       style="fill:url(#paint50_linear_110_3490);stroke-width:0.918511" />
    <path
       fill-rule="evenodd"
       clip-rule="evenodd"
       d="m 623.68804,115.35762 c 0.34133,0.18223 0.51777,0.50841 0.39613,0.73056 -0.12259,0.2221 -0.49472,0.2529 -0.83606,0.0707 -0.34042,-0.18307 -0.51778,-0.50842 -0.39523,-0.73141 0.12164,-0.22215 0.49766,-0.25098 0.83516,-0.0698 z"
       fill="#ffffff"
       id="path1721"
       style="stroke-width:0.918511" />
    <path
       fill-rule="evenodd"
       clip-rule="evenodd"
       d="m 633.26879,94.069834 c 0.19557,0.08446 0.35497,0.234513 0.44263,0.417785 0.0886,0.183317 0.0992,0.385293 0.0298,0.562605 -0.11314,0.154308 -0.28935,0.255749 -0.49347,0.282456 -0.20316,0.02684 -0.4172,-0.0232 -0.59607,-0.139325 -0.19557,-0.08455 -0.35498,-0.23469 -0.4436,-0.418184 -0.0886,-0.183494 -0.10016,-0.385781 -0.0308,-0.563625 0.11315,-0.15413 0.29127,-0.255307 0.49539,-0.281747 0.20319,-0.02648 0.4182,0.02387 0.59611,0.140035 z"
       fill="url(#paint51_linear_110_3490)"
       id="path1723"
       style="fill:url(#paint51_linear_110_3490);stroke-width:0.918511" />
    <path
       fill-rule="evenodd"
       clip-rule="evenodd"
       d="m 633.20263,94.189523 c 0.15489,0.06665 0.27968,0.18472 0.34952,0.329073 0.0698,0.144263 0.0785,0.303358 0.0237,0.443239 -0.0889,0.121216 -0.22897,0.200833 -0.38868,0.221778 -0.16065,0.0209 -0.32958,-0.01856 -0.46938,-0.109943 -0.15393,-0.06651 -0.27967,-0.184631 -0.3495,-0.328985 -0.0698,-0.144351 -0.0776,-0.303407 -0.0237,-0.443239 0.0889,-0.121306 0.22898,-0.200922 0.38867,-0.221867 0.16066,-0.0209 0.32959,0.01865 0.46938,0.109944 z"
       fill="#ffffff"
       id="path1725"
       style="stroke-width:0.918511" />
    <path
       d="m 628.33392,104.62354 c 0.21335,-0.38842 0.036,-0.89142 -0.39678,-1.12348 -0.4328,-0.23205 -0.95667,-0.10517 -1.17002,0.28326 -0.21336,0.38851 -0.035,0.89156 0.39773,1.12352 0.43183,0.23201 0.95572,0.10521 1.16907,-0.2833 z"
       fill="url(#paint52_linear_110_3490)"
       id="path1727"
       style="fill:url(#paint52_linear_110_3490);stroke-width:0.918511" />
    <path
       fill-rule="evenodd"
       clip-rule="evenodd"
       d="m 627.85512,103.64897 c 0.16348,0.0895 0.28838,0.23271 0.34678,0.39851 0.0584,0.16581 0.0449,0.34054 -0.0353,0.48617 -0.0793,0.14638 -0.22109,0.25214 -0.3932,0.29414 -0.17304,0.042 -0.36227,0.0169 -0.52753,-0.0699 -0.16346,-0.0895 -0.28742,-0.23266 -0.34582,-0.39846 -0.0584,-0.16581 -0.0459,-0.34059 0.0352,-0.48617 0.0793,-0.14638 0.22109,-0.25214 0.39319,-0.29414 0.17211,-0.0421 0.36133,-0.0169 0.52658,0.0699 z"
       fill="#ffffff"
       id="path1729"
       style="stroke-width:0.918511" />
    <path
       style="mix-blend-mode:screen;fill:url(#paint53_radial_110_3490);stroke-width:0.918511"
       d="m 628.12465,99.284639 c 0.66499,0.106331 1.31232,0.333424 1.90438,0.667944 0.59207,0.334527 1.11717,0.769907 1.54478,1.280847 0.42857,0.51106 0.75065,1.08751 0.94771,1.69597 0.19801,0.60842 0.26669,1.23679 0.20353,1.84857 -0.11602,1.24272 -0.75958,2.34881 -1.78888,3.07836 -1.03025,0.72951 -2.3642,1.02377 -3.71378,0.81889 -0.665,-0.10678 -1.31139,-0.33391 -1.90346,-0.66861 -0.59207,-0.33461 -1.11718,-0.77 -1.54479,-1.28093 -0.42856,-0.51098 -0.75062,-1.08725 -0.94768,-1.69554 -0.19801,-0.60824 -0.26764,-1.23656 -0.20447,-1.84825 0.11601,-1.24281 0.75862,-2.34886 1.78888,-3.07836 1.03025,-0.729602 2.3642,-1.02377 3.71378,-0.818891 z"
       fill="url(#paint53_radial_110_3490)"
       id="path1731" />
    <path
       style="mix-blend-mode:screen;fill:url(#paint54_radial_110_3490);stroke-width:0.918511"
       d="m 596.67732,62.008059 c 0.53007,0.0849 1.04716,0.266066 1.51945,0.532983 0.47229,0.266827 0.89195,0.614179 1.23342,1.021745 0.34147,0.407654 0.5987,0.867446 0.75725,1.35293 0.15759,0.485352 0.21324,0.986764 0.16279,1.474984 -0.0935,0.991843 -0.6069,1.874233 -1.42966,2.456239 -0.82274,0.582096 -1.88745,0.816922 -2.96442,0.653781 -0.53011,-0.08544 -1.04627,-0.267 -1.51856,-0.534183 -0.47327,-0.267315 -0.89198,-0.614801 -1.23346,-1.022633 -0.34147,-0.407743 -0.59871,-0.867712 -0.7563,-1.353152 -0.1576,-0.485529 -0.21325,-0.986853 -0.16378,-1.475207 0.0945,-0.991355 0.60789,-1.87339 1.42971,-2.454997 0.82277,-0.581651 1.88654,-0.816077 2.96354,-0.652491 z"
       fill="url(#paint54_radial_110_3490)"
       id="path1733" />
    <path
       style="mix-blend-mode:screen;fill:url(#paint55_radial_110_3490);stroke-width:0.918511"
       d="m 562.48655,66.225926 c 0.53008,0.0849 1.04717,0.266067 1.51946,0.532894 0.47229,0.266917 0.89194,0.61418 1.23342,1.021834 0.34146,0.407565 0.59869,0.867446 0.75723,1.352929 0.15759,0.485352 0.21324,0.986764 0.1629,1.47499 -0.0916,0.992463 -0.60494,1.87583 -1.42769,2.458102 -0.82273,0.582363 -1.88841,0.816612 -2.9664,0.651829 -0.53009,-0.0849 -1.04622,-0.266023 -1.51946,-0.532894 -0.4723,-0.266917 -0.891,-0.614136 -1.23343,-1.021834 -0.34147,-0.407654 -0.59869,-0.867446 -0.75629,-1.352886 -0.15853,-0.485395 -0.21418,-0.986808 -0.16377,-1.475029 0.0935,-0.99211 0.60688,-1.874943 1.42867,-2.457171 0.82275,-0.582184 1.88842,-0.816701 2.96543,-0.65276 z"
       fill="url(#paint55_radial_110_3490)"
       id="path1735" />
    <path
       style="mix-blend-mode:screen;fill:url(#paint56_radial_110_3490);stroke-width:0.918511"
       d="m 577.39265,97.991412 c 0.27365,0.04382 0.54087,0.137414 0.78528,0.275239 0.24346,0.137869 0.46018,0.317222 0.63739,0.527815 0.17625,0.210547 0.30899,0.447987 0.39098,0.698784 0.082,0.250796 0.11016,0.50976 0.0848,0.76202 -0.0484,0.51285 -0.31397,0.96924 -0.73916,1.27033 -0.42424,0.30122 -0.97496,0.42271 -1.53162,0.33827 -0.27461,-0.044 -0.54184,-0.13781 -0.78531,-0.27586 -0.24443,-0.13809 -0.46117,-0.31771 -0.63743,-0.52852 -0.17626,-0.21082 -0.309,-0.44852 -0.391,-0.6995 -0.081,-0.25093 -0.11018,-0.510114 -0.0839,-0.762503 0.0494,-0.512014 0.31403,-0.967645 0.73925,-1.268203 0.42427,-0.300603 0.97404,-0.421957 1.53069,-0.337871 z"
       fill="url(#paint56_radial_110_3490)"
       id="path1737" />
    <path
       style="mix-blend-mode:screen;fill:url(#paint57_radial_110_3490);stroke-width:0.918511"
       d="m 632.95868,93.151022 c 0.25734,0.04033 0.50814,0.127496 0.73791,0.256321 0.22882,0.128869 0.43271,0.296734 0.59889,0.494061 0.16618,0.197327 0.29069,0.420124 0.36821,0.655386 0.0766,0.235219 0.10408,0.478292 0.08,0.715013 -0.0441,0.479652 -0.29194,0.906543 -0.68948,1.187725 -0.39848,0.281227 -0.91347,0.393899 -1.43385,0.313601 -0.25641,-0.04082 -0.50531,-0.128164 -0.73317,-0.256812 -0.22883,-0.128782 -0.43079,-0.296382 -0.59599,-0.493044 -0.16521,-0.19675 -0.28873,-0.418704 -0.36527,-0.653035 -0.0765,-0.234242 -0.10301,-0.476293 -0.0789,-0.711947 0.0433,-0.47836 0.28917,-0.904632 0.68477,-1.186701 0.39466,-0.282023 0.90763,-0.397179 1.4269,-0.320565 z"
       fill="url(#paint57_radial_110_3490)"
       id="path1739" />
    <path
       style="mix-blend-mode:screen;fill:url(#paint58_radial_110_3490);stroke-width:0.918511"
       d="m 623.46408,114.2759 c 0.25643,0.041 0.50534,0.12853 0.7332,0.25708 0.22884,0.12923 0.43082,0.2971 0.59604,0.49429 0.16523,0.19719 0.28875,0.41906 0.3653,0.65384 0.0756,0.23384 0.10212,0.47607 0.0779,0.71243 -0.0451,0.47908 -0.29292,0.90543 -0.68951,1.18675 -0.39658,0.28131 -0.91156,0.39416 -1.43092,0.31542 -0.25642,-0.0409 -0.50629,-0.12866 -0.73509,-0.25699 -0.22788,-0.12918 -0.43082,-0.29709 -0.59604,-0.49429 -0.16523,-0.19719 -0.28969,-0.4191 -0.3653,-0.65383 -0.0765,-0.23478 -0.10304,-0.477 -0.079,-0.71338 0.0451,-0.47907 0.29293,-0.90542 0.69047,-1.1867 0.39755,-0.28109 0.91252,-0.39412 1.43285,-0.31462 z"
       fill="url(#paint58_radial_110_3490)"
       id="path1741" />
  </g>
</svg>
